<svg width="443" height="762" viewBox="0 0 443 762" fill="none" xmlns="http://www.w3.org/2000/svg">
<path fill-rule="evenodd" clip-rule="evenodd" d="M70 79.8778C70 79.8778 58.1288 77.4519 98 62.165C112.647 56.5494 118.932 46.0459 125.234 35.5147C131.736 24.6478 138.257 13.7512 154 8.16496C192.64 -5.54585 272 -4.54777 301 31.165C328.574 65.1217 354.885 119.33 359 162.878C363.378 209.216 355.333 239.738 337.021 278.55C342.004 267.332 346.173 255.05 348.297 240.775C352.679 211.327 348.297 171.275 348.297 171.275C348.297 171.275 305.46 212.797 295 240.775C284.769 268.14 262.161 342.035 244.074 402.354C229.587 450.67 218 490.275 218 490.275C218 490.275 230.129 469.309 246 441.768C246 441.768 246 613.577 246 723.665C205 747.165 160.842 767.398 106 755.665C57.0653 745.196 0 683.665 0 683.665L116.253 428.934C123.547 452.299 129 470.165 129 470.165C129 470.165 136.464 444.191 145.092 408.254C160.492 344.112 179.602 248.231 166.603 211.665C156.188 182.371 123.603 144.665 123.603 144.665C123.603 144.665 105.976 153.829 98 162.878C81 182.165 74.0686 197.628 70 220.878C70.6151 197.564 76.3998 185.093 85.2731 165.965L85.2748 165.961C86.4629 163.4 87.7063 160.72 89 157.878C91.3699 152.672 94.164 148.769 96.8434 145.026C100.632 139.733 104.192 134.76 106 126.878C106.362 125.298 106.745 123.773 107.116 122.291C109.342 113.415 111.18 106.084 106 97.8778C102.377 92.1385 98.0344 90.1161 92.4526 87.5168L92.4508 87.5159C91.3501 87.0033 90.2011 86.4682 89 85.8778C82.017 82.445 70 79.8778 70 79.8778ZM337.021 278.55C334.582 283.72 331.961 289.036 329.163 294.557C331.882 289.407 334.552 284.109 337.021 278.55ZM329.163 294.557L329 294.878C325.444 301.887 321.897 308.492 318.297 314.775C320.166 311.192 322.114 307.611 324.084 303.989L324.085 303.986C325.773 300.882 327.478 297.748 329.163 294.557Z" fill="#3F435A"/>
<path d="M129 470.165C129 470.165 136.464 444.191 145.092 408.254C141.457 399.547 138.259 391.658 136 385.665L116.253 428.934C123.547 452.299 129 470.165 129 470.165Z" fill="#373747"/>
<path d="M70 220.878C69.233 249.948 70 276.878 89 306.165C94.5328 314.693 99.5676 321.892 104.231 328.56C116.656 346.324 126.446 360.322 136 385.665C138.259 391.658 141.457 399.547 145.092 408.254C160.492 344.112 179.602 248.231 166.603 211.665C156.188 182.371 123.603 144.665 123.603 144.665C123.603 144.665 105.976 153.829 98 162.878C81 182.165 74.0686 197.628 70 220.878Z" fill="#373747"/>
<path d="M89 306.165C70 276.878 69.233 249.948 70 220.878C64 255.165 73.2671 303.105 83 327.878C89.9351 345.529 105.205 393.541 116.253 428.934L136 385.665C126.446 360.322 116.656 346.324 104.231 328.56C99.5676 321.892 94.5328 314.693 89 306.165Z" fill="#373747"/>
<path d="M246 400.665C278.03 373.046 298.926 348.585 318.297 314.775C320.166 311.192 322.114 307.611 324.084 303.989L324.085 303.986C325.773 300.882 327.478 297.748 329.163 294.557C331.961 289.036 334.582 283.72 337.021 278.55C342.004 267.332 346.173 255.05 348.297 240.775C352.679 211.327 348.297 171.275 348.297 171.275C348.297 171.275 305.46 212.797 295 240.775C284.769 268.14 262.161 342.035 244.074 402.354C244.717 401.781 245.359 401.218 246 400.665Z" fill="#373747"/>
<path d="M318.297 314.775C298.926 348.585 278.03 373.046 246 400.665V441.768C273.126 394.694 311.184 328.412 318.297 314.775Z" fill="#373747"/>
<path d="M244.074 402.354C229.587 450.67 218 490.275 218 490.275C218 490.275 230.129 469.309 246 441.768V400.665C245.359 401.218 244.717 401.781 244.074 402.354Z" fill="#373747"/>
</svg>
