<svg xmlns="http://www.w3.org/2000/svg" viewBox="28.16998107910156 88.055 518.6600036621094 403.21999389648437" > <svg xmlns="http://www.w3.org/2000/svg" xmlns:xlink="http://www.w3.org/1999/xlink" version="1.1" id="Layer_1" x="217.032" y="158.055" viewBox="198.60000610351562 108.5569076538086 70.69998168945312 74.24309539794922" xml:space="preserve" height="148.00000000000003" width="140.93694453911493" preserveAspectRatio="xMinYMin" enable-background="new 0 0 800 600" style="overflow: visible;"><path class="st0" d="M198.6,145.8c0,8,2.5,14.8,3,14.8c0.5,0,3-6.8,3-14.8c0-8-1.3-15.1-3-14.7C199.8,131.5,198.6,139.9,198.6,145.8  z" style="fill: #FDB400;"></path><path class="st1" d="M230.7,127.1c0,0.1,0,0.2,0,0.2C230.7,127.3,230.7,127.2,230.7,127.1L230.7,127.1z" style="fill: #D60089;"></path><linearGradient id="SVGID_1_" gradientUnits="userSpaceOnUse" x1="217.0472" y1="145.6057" x2="233.114" y2="145.8104" style=""><stop offset="0" style="stop-color: #FF8A29;"></stop><stop offset="1" style="stop-color: #FF2840;"></stop></linearGradient><path class="st2" d="M233.9,108.6c-1.4-0.7-2.6,7.2-3.3,18.5l0-0.1c0,0.1,0,0.2,0,0.2c0,0.2,0,0.3,0,0.5c0,0.3,0,0.7-0.1,1  c-0.8,8.3-1.9,14.4-5,14.4c-2.1,0-3.3-2.8-4.1-7.2c0-0.2-0.1-0.4-0.1-0.6c-0.3-1.6-0.5-3.4-0.7-5.4c-0.1-1-0.2-1.9-0.3-3l0,0.1  c-0.7-6.9-1.7-11.3-2.9-10.8c-2.2,0.8-3.8,17.6-3.8,29.4c0,16,3.2,29.5,3.8,29.5c0.4,0,1.6-4.6,2.5-11.6c0-0.1,0-0.3,0.1-0.4  c0-0.4,0.1-0.8,0.1-1.2c0.4-2.8,0.6-5.4,1.1-7.6c0.8-4.2,2.1-6.9,4.2-6.9c2.9,0,3.9,4.8,4.9,11.7c0.2,1.3,0.4,2.6,0.5,3.8  c0,0,0,0.1,0,0.1c0,0,0,0,0,0.1c0,0.1,0,0.2,0,0.3c1,11.5,2.6,19.4,3,19.4c0.6,0,3.8-17.1,3.8-37.3  C237.7,130.8,236.1,109.7,233.9,108.6z" style="fill: url(#SVGID_1_);"></path><path class="st1" d="M220,163.3c0,0.1,0,0.3,0,0.4l0,0C220,163.6,220,163.4,220,163.3z" style="fill: #D60089;"></path><linearGradient id="SVGID_00000144329084053549613250000014313214262194197951_" gradientUnits="userSpaceOnUse" x1="249.5144" y1="145.7949" x2="266.1501" y2="146.2143" style=""><stop offset="0" style="stop-color: #D60089;"></stop><stop offset="1" style="stop-color: #94009F;"></stop></linearGradient><path style="fill: url(#SVGID_00000144329084053549613250000014313214262194197951_);" d="M266.3,131.1c-0.9-0.2-1.7,1.6-2.2,4.4  c0,0.2-0.1,0.4-0.1,0.6c-0.9,4.4-2.3,7.2-4.8,7.2c-3.6,0-4.9-6.1-5.8-14.4c0-0.3-0.1-0.6-0.1-1c-0.7-6.2-1.7-11-2.8-11.5  c-2.1-0.8-3.8,13.4-3.8,29.4c0,16,3.2,29.5,3.8,29.5c0.4,0,1.6-4.7,2.6-11.9c0,0,0,0,0-0.1c0.1-1.4,0.3-2.7,0.5-3.9  c1-6.9,2.4-11.7,5.7-11.7c2.5,0,3.9,2.7,4.9,6.9h0c0.8,3.6,1.8,6,2.1,6c0.5,0,3-6.8,3-14.8C269.3,139.9,268,131.5,266.3,131.1z"></path><path class="st1" d="M253.5,159.4c-0.1,1.4-0.3,2.7-0.5,3.9C253.2,161.9,253.4,160.6,253.5,159.4z" style="fill: #D60089;"></path></svg> <svg y="404.05499267578125" viewBox="1.7799999713897705 3.799999952316284 257.510009765625 17.220001220703125" x="158.74497497558593" height="17.220001220703125" width="257.510009765625" style="overflow: visible;"><g fill="#737373" fill-opacity="1" style=""><path d="M7.11 17.57L7.11 17.57Q4.63 17.57 3.20 16.15Q1.78 14.72 1.78 11.99L1.78 11.99L1.78 4.82L3.58 4.82L3.58 11.92Q3.58 14.02 4.51 14.99Q5.44 15.97 7.13 15.97L7.13 15.97Q8.84 15.97 9.77 14.99Q10.69 14.02 10.69 11.92L10.69 11.92L10.69 4.82L12.44 4.82L12.44 11.99Q12.44 14.72 11.03 16.15Q9.61 17.57 7.11 17.57ZM22.59 7.79L22.59 7.79Q23.76 7.79 24.65 8.24Q25.54 8.69 26.05 9.61Q26.55 10.53 26.55 11.93L26.55 11.93L26.55 17.42L24.82 17.42L24.82 12.13Q24.82 10.75 24.15 10.04Q23.47 9.34 22.25 9.34L22.25 9.34Q21.33 9.34 20.65 9.70Q19.96 10.06 19.59 10.76Q19.22 11.47 19.22 12.51L19.22 12.51L19.22 17.42L17.50 17.42L17.50 7.88L19.15 7.88L19.15 10.46L18.88 9.77Q19.35 8.84 20.32 8.32Q21.29 7.79 22.59 7.79ZM33.10 17.42L31.37 17.42L31.37 7.88L33.10 7.88L33.10 17.42ZM32.24 6.05L32.24 6.05Q31.73 6.05 31.40 5.72Q31.07 5.40 31.07 4.93L31.07 4.93Q31.07 4.45 31.40 4.12Q31.73 3.80 32.24 3.80L32.24 3.80Q32.74 3.80 33.08 4.11Q33.41 4.43 33.41 4.90L33.41 4.90Q33.41 5.38 33.08 5.72Q32.76 6.05 32.24 6.05ZM42.28 17.42L40.52 17.42L36.34 7.88L38.14 7.88L41.85 16.52L40.99 16.52L44.77 7.88L46.46 7.88L42.28 17.42ZM53.68 17.53L53.68 17.53Q52.15 17.53 50.98 16.90Q49.82 16.27 49.18 15.17Q48.55 14.08 48.55 12.65L48.55 12.65Q48.55 11.23 49.17 10.13Q49.79 9.04 50.88 8.42Q51.97 7.79 53.33 7.79L53.33 7.79Q54.72 7.79 55.78 8.41Q56.84 9.02 57.45 10.13Q58.05 11.23 58.05 12.71L58.05 12.71Q58.05 12.82 58.04 12.96Q58.03 13.10 58.01 13.23L58.01 13.23L49.90 13.23L49.90 11.99L57.11 11.99L56.41 12.42Q56.43 11.50 56.03 10.78Q55.64 10.06 54.94 9.66Q54.25 9.25 53.33 9.25L53.33 9.25Q52.43 9.25 51.73 9.66Q51.03 10.06 50.63 10.79Q50.24 11.52 50.24 12.46L50.24 12.46L50.24 12.74Q50.24 13.70 50.68 14.45Q51.12 15.19 51.91 15.61Q52.70 16.02 53.73 16.02L53.73 16.02Q54.58 16.02 55.27 15.73Q55.96 15.44 56.48 14.87L56.48 14.87L57.44 15.98Q56.79 16.74 55.83 17.14Q54.86 17.53 53.68 17.53ZM63.79 17.42L62.06 17.42L62.06 7.88L63.72 7.88L63.72 10.48L63.56 9.83Q63.95 8.84 64.89 8.32Q65.83 7.79 67.19 7.79L67.19 7.79L67.19 9.47Q67.09 9.45 66.99 9.45Q66.89 9.45 66.80 9.45L66.80 9.45Q65.41 9.45 64.60 10.28Q63.79 11.11 63.79 12.67L63.79 12.67L63.79 17.42ZM73.78 17.53L73.78 17.53Q72.59 17.53 71.52 17.21Q70.45 16.88 69.84 16.42L69.84 16.42L70.56 15.05Q71.17 15.46 72.07 15.75Q72.97 16.04 73.91 16.04L73.91 16.04Q75.11 16.04 75.64 15.70Q76.18 15.35 76.18 14.74L76.18 14.74Q76.18 14.29 75.85 14.04Q75.53 13.79 75.00 13.66Q74.47 13.54 73.82 13.44Q73.17 13.34 72.52 13.19Q71.87 13.03 71.33 12.75Q70.79 12.47 70.47 11.98Q70.15 11.48 70.15 10.66L70.15 10.66Q70.15 9.79 70.63 9.14Q71.12 8.50 72.01 8.15Q72.90 7.79 74.12 7.79L74.12 7.79Q75.06 7.79 76.02 8.02Q76.99 8.24 77.60 8.66L77.60 8.66L76.86 10.03Q76.21 9.59 75.51 9.43Q74.81 9.27 74.11 9.27L74.11 9.27Q72.97 9.27 72.41 9.64Q71.86 10.01 71.86 10.58L71.86 10.58Q71.86 11.07 72.19 11.33Q72.52 11.59 73.05 11.74Q73.58 11.88 74.23 11.98Q74.88 12.08 75.53 12.23Q76.18 12.38 76.71 12.65Q77.24 12.92 77.57 13.41Q77.90 13.90 77.90 14.71L77.90 14.71Q77.90 15.57 77.40 16.20Q76.90 16.83 75.98 17.18Q75.06 17.53 73.78 17.53ZM83.41 17.42L81.68 17.42L81.68 7.88L83.41 7.88L83.41 17.42ZM82.55 6.05L82.55 6.05Q82.04 6.05 81.71 5.72Q81.38 5.40 81.38 4.93L81.38 4.93Q81.38 4.45 81.71 4.12Q82.04 3.80 82.55 3.80L82.55 3.80Q83.05 3.80 83.39 4.11Q83.72 4.43 83.72 4.90L83.72 4.90Q83.72 5.38 83.39 5.72Q83.07 6.05 82.55 6.05ZM91.60 17.53L91.60 17.53Q90.16 17.53 89.37 16.76Q88.58 15.98 88.58 14.54L88.58 14.54L88.58 5.80L90.31 5.80L90.31 14.47Q90.31 15.25 90.69 15.66Q91.08 16.07 91.80 16.07L91.80 16.07Q92.61 16.07 93.15 15.62L93.15 15.62L93.69 16.87Q93.29 17.21 92.75 17.37Q92.20 17.53 91.60 17.53ZM93.04 9.31L86.96 9.31L86.96 7.88L93.04 7.88L93.04 9.31ZM97.63 21.02L97.63 21.02Q96.95 21.02 96.30 20.80Q95.65 20.57 95.18 20.14L95.18 20.14L95.92 18.85Q96.28 19.19 96.71 19.37Q97.15 19.55 97.63 19.55L97.63 19.55Q98.26 19.55 98.68 19.22Q99.09 18.90 99.45 18.07L99.45 18.07L100.04 16.76L100.22 16.54L103.97 7.88L105.66 7.88L101.03 18.38Q100.62 19.39 100.11 19.96Q99.59 20.54 98.98 20.78Q98.37 21.02 97.63 21.02ZM101.05 16.38L99.90 17.73L95.54 7.88L97.34 7.88L101.05 16.38ZM119.45 17.53L119.45 17.53Q118.01 17.53 116.89 16.90Q115.78 16.27 115.13 15.17Q114.48 14.06 114.48 12.65L114.48 12.65Q114.48 11.23 115.13 10.13Q115.78 9.04 116.89 8.42Q118.01 7.79 119.45 7.79L119.45 7.79Q120.87 7.79 122.00 8.42Q123.12 9.04 123.76 10.13Q124.40 11.21 124.40 12.65L124.40 12.65Q124.40 14.08 123.76 15.17Q123.12 16.27 122.00 16.90Q120.87 17.53 119.45 17.53ZM119.45 16.02L119.45 16.02Q120.37 16.02 121.10 15.61Q121.82 15.19 122.24 14.43Q122.65 13.66 122.65 12.65L122.65 12.65Q122.65 11.63 122.24 10.88Q121.82 10.13 121.10 9.72Q120.37 9.31 119.45 9.31L119.45 9.31Q118.53 9.31 117.81 9.72Q117.09 10.13 116.66 10.88Q116.23 11.63 116.23 12.65L116.23 12.65Q116.23 13.66 116.66 14.43Q117.09 15.19 117.81 15.61Q118.53 16.02 119.45 16.02ZM130.39 17.42L128.66 17.42L128.66 7.04Q128.66 5.63 129.48 4.80Q130.30 3.96 131.81 3.96L131.81 3.96Q132.37 3.96 132.89 4.10Q133.40 4.23 133.76 4.52L133.76 4.52L133.24 5.83Q132.97 5.62 132.62 5.50Q132.28 5.38 131.90 5.38L131.90 5.38Q131.15 5.38 130.75 5.81Q130.36 6.23 130.36 7.06L130.36 7.06L130.36 8.33L130.39 9.13L130.39 17.42ZM133.13 9.31L127.04 9.31L127.04 7.88L133.13 7.88L133.13 9.31ZM148.73 17.57L148.73 17.57Q147.29 17.57 146.08 17.09Q144.86 16.61 143.97 15.74Q143.08 14.87 142.58 13.70Q142.07 12.53 142.07 11.12L142.07 11.12Q142.07 9.72 142.58 8.55Q143.08 7.38 143.98 6.51Q144.88 5.63 146.10 5.16Q147.31 4.68 148.75 4.68L148.75 4.68Q150.21 4.68 151.44 5.18Q152.68 5.67 153.54 6.64L153.54 6.64L152.37 7.78Q151.65 7.02 150.75 6.65Q149.85 6.28 148.82 6.28L148.82 6.28Q147.76 6.28 146.85 6.64Q145.94 7.00 145.28 7.65Q144.61 8.30 144.24 9.19Q143.87 10.08 143.87 11.12L143.87 11.12Q143.87 12.17 144.24 13.06Q144.61 13.95 145.28 14.60Q145.94 15.25 146.85 15.61Q147.76 15.97 148.82 15.97L148.82 15.97Q149.85 15.97 150.75 15.60Q151.65 15.23 152.37 14.45L152.37 14.45L153.54 15.59Q152.68 16.56 151.44 17.06Q150.21 17.57 148.73 17.57ZM164.92 17.42L163.28 17.42L163.28 15.41L163.19 15.03L163.19 11.59Q163.19 10.49 162.55 9.89Q161.91 9.29 160.63 9.29L160.63 9.29Q159.79 9.29 158.98 9.57Q158.17 9.85 157.61 10.31L157.61 10.31L156.89 9.02Q157.63 8.42 158.66 8.11Q159.70 7.79 160.83 7.79L160.83 7.79Q162.79 7.79 163.85 8.75Q164.92 9.70 164.92 11.66L164.92 11.66L164.92 17.42ZM160.15 17.53L160.15 17.53Q159.08 17.53 158.28 17.17Q157.48 16.81 157.05 16.17Q156.62 15.53 156.62 14.72L156.62 14.72Q156.62 13.95 156.99 13.32Q157.36 12.69 158.19 12.31Q159.03 11.93 160.45 11.93L160.45 11.93L163.48 11.93L163.48 13.18L160.52 13.18Q159.23 13.18 158.78 13.61Q158.33 14.04 158.33 14.65L158.33 14.65Q158.33 15.35 158.89 15.78Q159.44 16.20 160.43 16.20L160.43 16.20Q161.41 16.20 162.14 15.77Q162.86 15.34 163.19 14.51L163.19 14.51L163.53 15.70Q163.19 16.54 162.32 17.04Q161.46 17.53 160.15 17.53ZM174.83 7.79L174.83 7.79Q176.00 7.79 176.90 8.24Q177.79 8.69 178.29 9.61Q178.79 10.53 178.79 11.93L178.79 11.93L178.79 17.42L177.07 17.42L177.07 12.13Q177.07 10.75 176.39 10.04Q175.72 9.34 174.49 9.34L174.49 9.34Q173.57 9.34 172.89 9.70Q172.21 10.06 171.84 10.76Q171.47 11.47 171.47 12.51L171.47 12.51L171.47 17.42L169.74 17.42L169.74 7.88L171.40 7.88L171.40 10.46L171.13 9.77Q171.59 8.84 172.57 8.32Q173.54 7.79 174.83 7.79ZM186.89 17.53L186.89 17.53Q185.45 17.53 184.66 16.76Q183.87 15.98 183.87 14.54L183.87 14.54L183.87 5.80L185.60 5.80L185.60 14.47Q185.60 15.25 185.99 15.66Q186.37 16.07 187.09 16.07L187.09 16.07Q187.90 16.07 188.44 15.62L188.44 15.62L188.98 16.87Q188.59 17.21 188.04 17.37Q187.49 17.53 186.89 17.53ZM188.33 9.31L182.25 9.31L182.25 7.88L188.33 7.88L188.33 9.31ZM196.61 17.53L196.61 17.53Q195.08 17.53 193.92 16.90Q192.76 16.27 192.12 15.17Q191.48 14.08 191.48 12.65L191.48 12.65Q191.48 11.23 192.11 10.13Q192.73 9.04 193.82 8.42Q194.90 7.79 196.27 7.79L196.27 7.79Q197.66 7.79 198.72 8.41Q199.78 9.02 200.39 10.13Q200.99 11.23 200.99 12.71L200.99 12.71Q200.99 12.82 200.98 12.96Q200.97 13.10 200.95 13.23L200.95 13.23L192.83 13.23L192.83 11.99L200.05 11.99L199.35 12.42Q199.37 11.50 198.97 10.78Q198.58 10.06 197.88 9.66Q197.19 9.25 196.27 9.25L196.27 9.25Q195.37 9.25 194.67 9.66Q193.97 10.06 193.57 10.79Q193.18 11.52 193.18 12.46L193.18 12.46L193.18 12.74Q193.18 13.70 193.62 14.45Q194.06 15.19 194.85 15.61Q195.64 16.02 196.67 16.02L196.67 16.02Q197.51 16.02 198.21 15.73Q198.90 15.44 199.42 14.87L199.42 14.87L200.38 15.98Q199.73 16.74 198.77 17.14Q197.80 17.53 196.61 17.53ZM206.73 17.42L205.00 17.42L205.00 7.88L206.66 7.88L206.66 10.48L206.50 9.83Q206.89 8.84 207.83 8.32Q208.76 7.79 210.13 7.79L210.13 7.79L210.13 9.47Q210.02 9.45 209.93 9.45Q209.83 9.45 209.74 9.45L209.74 9.45Q208.35 9.45 207.54 10.28Q206.73 11.11 206.73 12.67L206.73 12.67L206.73 17.42ZM218.93 17.53L218.93 17.53Q217.71 17.53 216.73 16.98Q215.75 16.43 215.18 15.35Q214.61 14.27 214.61 12.65L214.61 12.65Q214.61 11.03 215.20 9.95Q215.78 8.87 216.77 8.33Q217.75 7.79 218.93 7.79L218.93 7.79Q220.34 7.79 221.42 8.41Q222.50 9.02 223.13 10.11Q223.76 11.20 223.76 12.65L223.76 12.65Q223.76 14.11 223.13 15.21Q222.50 16.31 221.42 16.92Q220.34 17.53 218.93 17.53ZM215.53 17.42L213.88 17.42L213.88 4.07L215.60 4.07L215.60 10.42L215.42 12.64L215.53 14.85L215.53 17.42ZM218.79 16.02L218.79 16.02Q219.71 16.02 220.44 15.61Q221.17 15.19 221.59 14.43Q222.01 13.66 222.01 12.65L222.01 12.65Q222.01 11.63 221.59 10.88Q221.17 10.13 220.44 9.72Q219.71 9.31 218.79 9.31L218.79 9.31Q217.89 9.31 217.16 9.72Q216.43 10.13 216.01 10.88Q215.59 11.63 215.59 12.65L215.59 12.65Q215.59 13.66 216.01 14.43Q216.43 15.19 217.16 15.61Q217.89 16.02 218.79 16.02ZM231.79 17.53L231.79 17.53Q230.56 17.53 229.64 17.08Q228.71 16.63 228.20 15.71Q227.68 14.78 227.68 13.37L227.68 13.37L227.68 7.88L229.41 7.88L229.41 13.18Q229.41 14.58 230.09 15.28Q230.76 15.98 231.98 15.98L231.98 15.98Q232.88 15.98 233.55 15.62Q234.22 15.25 234.58 14.54Q234.94 13.82 234.94 12.82L234.94 12.82L234.94 7.88L236.66 7.88L236.66 17.42L235.03 17.42L235.03 14.85L235.30 15.53Q234.83 16.49 233.89 17.01Q232.96 17.53 231.79 17.53ZM243.31 17.42L241.58 17.42L241.58 7.88L243.23 7.88L243.23 10.48L243.07 9.83Q243.47 8.84 244.40 8.32Q245.34 7.79 246.71 7.79L246.71 7.79L246.71 9.47Q246.60 9.45 246.50 9.45Q246.40 9.45 246.31 9.45L246.31 9.45Q244.93 9.45 244.12 10.28Q243.31 11.11 243.31 12.67L243.31 12.67L243.31 17.42ZM251.26 21.02L251.26 21.02Q250.58 21.02 249.93 20.80Q249.28 20.57 248.81 20.14L248.81 20.14L249.55 18.85Q249.91 19.19 250.34 19.37Q250.78 19.55 251.26 19.55L251.26 19.55Q251.89 19.55 252.31 19.22Q252.72 18.90 253.08 18.07L253.08 18.07L253.67 16.76L253.85 16.54L257.60 7.88L259.29 7.88L254.66 18.38Q254.25 19.39 253.74 19.96Q253.22 20.54 252.61 20.78Q252.00 21.02 251.26 21.02ZM254.68 16.38L253.53 17.73L249.17 7.88L250.97 7.88L254.68 16.38Z" transform="translate(0, 0)"></path></g></svg> <svg y="337.05499267578125" viewBox="4.429999828338623 16.520000457763672 378.6600036621094 61.47999954223633" x="98.16998107910156" height="61.47999954223633" width="378.6600036621094" style="overflow: visible;"><g fill="#F5F5F5" fill-opacity="1" style=""><path d="M11.15 20.95L11.15 56.52L25.02 56.52L25.02 61.95L4.43 61.95L4.43 20.95L11.15 20.95ZM34.04 25.13Q32.21 25.13 30.98 23.90Q29.74 22.66 29.74 20.83L29.74 20.83Q29.74 19.00 30.98 17.76Q32.21 16.52 34.04 16.52L34.04 16.52Q35.81 16.52 37.05 17.76Q38.29 19.00 38.29 20.83L38.29 20.83Q38.29 22.66 37.05 23.90Q35.81 25.13 34.04 25.13L34.04 25.13ZM30.62 29.44L37.35 29.44L37.35 61.95L30.62 61.95L30.62 29.44ZM58.00 62.48Q54.16 62.48 51.12 61.09Q48.09 59.71 46.32 57.32Q44.55 54.93 44.43 51.98L44.43 51.98L51.39 51.98Q51.57 54.04 53.37 55.43Q55.17 56.82 57.88 56.82L57.88 56.82Q60.71 56.82 62.27 55.73Q63.84 54.63 63.84 52.92L63.84 52.92Q63.84 51.09 62.10 50.21Q60.36 49.32 56.58 48.26L56.58 48.26Q52.92 47.26 50.62 46.31Q48.32 45.37 46.64 43.42Q44.96 41.48 44.96 38.29L44.96 38.29Q44.96 35.70 46.49 33.54Q48.03 31.39 50.89 30.15Q53.75 28.91 57.47 28.91L57.47 28.91Q63.01 28.91 66.40 31.71Q69.80 34.52 70.03 39.35L70.03 39.35L63.31 39.35Q63.13 37.17 61.54 35.87Q59.94 34.57 57.23 34.57L57.23 34.57Q54.58 34.57 53.16 35.58Q51.74 36.58 51.74 38.23L51.74 38.23Q51.74 39.53 52.69 40.42Q53.63 41.30 54.99 41.80Q56.35 42.30 59.00 43.07L59.00 43.07Q62.54 44.01 64.81 44.99Q67.08 45.96 68.74 47.85Q70.39 49.74 70.45 52.86L70.45 52.86Q70.45 55.64 68.91 57.82Q67.38 60.00 64.58 61.24Q61.77 62.48 58.00 62.48L58.00 62.48ZM93.46 34.93L85.55 34.93L85.55 52.92Q85.55 54.75 86.41 55.55Q87.26 56.34 89.33 56.34L89.33 56.34L93.46 56.34L93.46 61.95L88.15 61.95Q83.60 61.95 81.18 59.83Q78.77 57.70 78.77 52.92L78.77 52.92L78.77 34.93L74.93 34.93L74.93 29.44L78.77 29.44L78.77 21.36L85.55 21.36L85.55 29.44L93.46 29.44L93.46 34.93ZM129.45 44.90Q129.45 46.73 129.21 48.20L129.21 48.20L104.37 48.20Q104.67 52.10 107.26 54.46Q109.86 56.82 113.63 56.82L113.63 56.82Q119.06 56.82 121.30 52.27L121.30 52.27L128.56 52.27Q127.09 56.76 123.22 59.62Q119.36 62.48 113.63 62.48L113.63 62.48Q108.97 62.48 105.29 60.39Q101.60 58.29 99.50 54.49Q97.41 50.68 97.41 45.67L97.41 45.67Q97.41 40.65 99.44 36.85Q101.48 33.04 105.17 30.98Q108.86 28.91 113.63 28.91L113.63 28.91Q118.24 28.91 121.84 30.92Q125.43 32.92 127.44 36.55Q129.45 40.18 129.45 44.90L129.45 44.90ZM104.43 42.78L122.42 42.78Q122.37 39.06 119.77 36.82Q117.17 34.57 113.34 34.57L113.34 34.57Q109.86 34.57 107.38 36.79Q104.90 39.00 104.43 42.78L104.43 42.78ZM152.46 28.91Q156.29 28.91 159.33 30.50Q162.37 32.10 164.08 35.22Q165.79 38.35 165.79 42.78L165.79 42.78L165.79 61.95L159.12 61.95L159.12 43.78Q159.12 39.41 156.94 37.08Q154.76 34.75 150.98 34.75L150.98 34.75Q147.21 34.75 144.99 37.08Q142.78 39.41 142.78 43.78L142.78 43.78L142.78 61.95L136.05 61.95L136.05 29.44L142.78 29.44L142.78 33.16Q144.43 31.15 147.00 30.03Q149.57 28.91 152.46 28.91L152.46 28.91ZM177.77 25.13Q175.94 25.13 174.70 23.90Q173.46 22.66 173.46 20.83L173.46 20.83Q173.46 19.00 174.70 17.76Q175.94 16.52 177.77 16.52L177.77 16.52Q179.54 16.52 180.78 17.76Q182.02 19.00 182.02 20.83L182.02 20.83Q182.02 22.66 180.78 23.90Q179.54 25.13 177.77 25.13L177.77 25.13ZM174.35 29.44L181.07 29.44L181.07 61.95L174.35 61.95L174.35 29.44ZM206.32 28.91Q210.16 28.91 213.20 30.50Q216.24 32.10 217.95 35.22Q219.66 38.35 219.66 42.78L219.66 42.78L219.66 61.95L212.99 61.95L212.99 43.78Q212.99 39.41 210.81 37.08Q208.62 34.75 204.85 34.75L204.85 34.75Q201.07 34.75 198.86 37.08Q196.65 39.41 196.65 43.78L196.65 43.78L196.65 61.95L189.92 61.95L189.92 29.44L196.65 29.44L196.65 33.16Q198.30 31.15 200.87 30.03Q203.43 28.91 206.32 28.91L206.32 28.91ZM241.31 28.91Q245.09 28.91 248.01 30.41Q250.93 31.92 252.58 34.16L252.58 34.16L252.58 29.44L259.36 29.44L259.36 62.48Q259.36 66.97 257.48 70.48Q255.59 73.99 252.02 75.99Q248.45 78.00 243.49 78.00L243.49 78.00Q236.89 78.00 232.52 74.90Q228.15 71.80 227.56 66.49L227.56 66.49L234.23 66.49Q235.00 69.03 237.50 70.59Q240.01 72.16 243.49 72.16L243.49 72.16Q247.56 72.16 250.07 69.68Q252.58 67.20 252.58 62.48L252.58 62.48L252.58 57.05Q250.87 59.35 247.95 60.92Q245.03 62.48 241.31 62.48L241.31 62.48Q237.06 62.48 233.55 60.33Q230.04 58.17 228.01 54.31Q225.97 50.45 225.97 45.55L225.97 45.55Q225.97 40.65 228.01 36.88Q230.04 33.10 233.55 31.00Q237.06 28.91 241.31 28.91L241.31 28.91ZM252.58 45.67Q252.58 42.30 251.19 39.83Q249.81 37.35 247.56 36.05Q245.32 34.75 242.73 34.75L242.73 34.75Q240.13 34.75 237.89 36.02Q235.65 37.29 234.26 39.74Q232.87 42.19 232.87 45.55L232.87 45.55Q232.87 48.91 234.26 51.45Q235.65 53.98 237.92 55.31Q240.19 56.64 242.73 56.64L242.73 56.64Q245.32 56.64 247.56 55.34Q249.81 54.04 251.19 51.54Q252.58 49.03 252.58 45.67L252.58 45.67ZM290.28 20.95L290.28 56.52L304.14 56.52L304.14 61.95L283.55 61.95L283.55 20.95L290.28 20.95ZM307.51 45.55Q307.51 40.65 309.54 36.88Q311.58 33.10 315.09 31.00Q318.60 28.91 322.85 28.91L322.85 28.91Q326.68 28.91 329.54 30.41Q332.41 31.92 334.12 34.16L334.12 34.16L334.12 29.44L340.90 29.44L340.90 61.95L334.12 61.95L334.12 57.11Q332.41 59.41 329.46 60.95Q326.51 62.48 322.73 62.48L322.73 62.48Q318.54 62.48 315.06 60.33Q311.58 58.17 309.54 54.31Q307.51 50.45 307.51 45.55L307.51 45.55ZM334.12 45.67Q334.12 42.30 332.73 39.83Q331.34 37.35 329.10 36.05Q326.86 34.75 324.26 34.75L324.26 34.75Q321.67 34.75 319.43 36.02Q317.18 37.29 315.80 39.74Q314.41 42.19 314.41 45.55L314.41 45.55Q314.41 48.91 315.80 51.45Q317.18 53.98 319.46 55.31Q321.73 56.64 324.26 56.64L324.26 56.64Q326.86 56.64 329.10 55.34Q331.34 54.04 332.73 51.54Q334.12 49.03 334.12 45.67L334.12 45.67ZM356.48 34.28Q358.19 31.92 361.17 30.41Q364.15 28.91 367.81 28.91L367.81 28.91Q372.11 28.91 375.59 30.98Q379.07 33.04 381.08 36.85Q383.09 40.65 383.09 45.55L383.09 45.55Q383.09 50.45 381.08 54.31Q379.07 58.17 375.56 60.33Q372.05 62.48 367.81 62.48L367.81 62.48Q364.03 62.48 361.11 61.01Q358.19 59.53 356.48 57.23L356.48 57.23L356.48 61.95L349.75 61.95L349.75 18.29L356.48 18.29L356.48 34.28ZM376.24 45.55Q376.24 42.19 374.86 39.74Q373.47 37.29 371.20 36.02Q368.93 34.75 366.33 34.75L366.33 34.75Q363.79 34.75 361.52 36.05Q359.25 37.35 357.86 39.83Q356.48 42.30 356.48 45.67L356.48 45.67Q356.48 49.03 357.86 51.54Q359.25 54.04 361.52 55.34Q363.79 56.64 366.33 56.64L366.33 56.64Q368.93 56.64 371.20 55.31Q373.47 53.98 374.86 51.45Q376.24 48.91 376.24 45.55L376.24 45.55Z" transform="translate(0, 0)"></path></g></svg></svg>